# xmcd
#
# Track frame offsets: 
#        150
#        18073
#        29348
#        42540
#        55543
#        68409
#        81610
#        98113
#        110190
#        125336
#        138712
#        150716
#        158628
#        172857
#
# Disc length: 2517 seconds
#
# Revision: 3
# Processed by: cddbd v1.5.2PL0 Copyright (c) Steve Scherf et al.
# Submitted via: ExactAudioCopy v1.0b4
#
DISCID=b109d30e
DTITLE=The Steve Miller Band - Let Your Hair Down
DYEAR=2011
DGENRE=Blues Rock, Classic Rock
TTITLE0=Snatch It Back And Hold It
TTITLE1=I Got Love If You Want It
TTITLE2=Just A Little Bit
TTITLE3=Close Together
TTITLE4=No More Doggin'
TTITLE5=Pretty Thing
TTITLE6=Can't Be Satisfied
TTITLE7=Sweet Home Chicago
TTITLE8=Love The Life I Live
TTITLE9=The Walk
TTITLE10=When Things Go Wrong (It Hurts Me Too)
TTITLE11=I Ain't Got You
TTITLE12=Tell Me What's The Reason
TTITLE13=Driftin' Blues
EXTD=YEAR: 2011
EXTT0=
EXTT1=
EXTT2=
EXTT3=
EXTT4=
EXTT5=
EXTT6=
EXTT7=
EXTT8=
EXTT9=
EXTT10=
EXTT11=
EXTT12=
EXTT13=
PLAYORDER=
